# xmcd
#
# Track frame offsets: 
#        150
#        18267
#        38128
#        50124
#        67197
#        80751
#        100513
#        115646
#        130529
#        144579
#        162007
#
# Disc length: 2398 seconds
#
# Revision: 0
# Processed by: cddbd v1.5.2PL0 Copyright (c) Steve Scherf et al.
# Submitted via: ExactAudioCopy v0.99pb4
#
DISCID=8b095c0b
DTITLE=Labelle - Labelle
DYEAR=1971
DGENRE=Soul
TTITLE0=Morning Much Better
TTITLE1=You've Got A Friend
TTITLE2=Baby's Out Of Sight
TTITLE3=Time and Love
TTITLE4=Too Many Days
TTITLE5=Running Out Of Fools and If You Gotta Make A Fool Of Somebody
TTITLE6=Shades Of Difference
TTITLE7=Heart Be Still
TTITLE8=Wild Horses
TTITLE9=Time
TTITLE10=When The Sun Comes Shining Through (The Ladder)
EXTD=
EXTT0=
EXTT1=
EXTT2=
EXTT3=
EXTT4=
EXTT5=
EXTT6=
EXTT7=
EXTT8=
EXTT9=
EXTT10=
PLAYORDER=
